<?xml version="1.0" encoding="utf-8"?>
<!-- Generator: Adobe Illustrator 24.0.0, SVG Export Plug-In . SVG Version: 6.00 Build 0)  -->
<svg version="1.1" id="Layer_1" xmlns="http://www.w3.org/2000/svg" xmlns:xlink="http://www.w3.org/1999/xlink" x="0px" y="0px"
	 viewBox="0 0 600 1000" style="enable-background:new 0 0 600 1000;" xml:space="preserve">
<style type="text/css">
	.st0{fill:#FFFFFF;}
	.st1{fill:none;stroke:#000000;stroke-width:1.1523;stroke-miterlimit:10;}
	.st2{fill:none;stroke:#FFFFFF;stroke-width:1.1523;stroke-miterlimit:10;}
	.st3{fill:none;stroke:#FFFFFF;stroke-miterlimit:10;}
</style>
<path d="M68.2,43.2l-8.3-18.4c-0.1-0.1-0.3-0.3-0.4-0.3c-0.1,0-0.3,0.1-0.4,0.3L54,36.2l-3.1,7c-0.1,0.1-0.1,0.3,0,0.4
	c0.1,0.1,0.3,0.1,0.4,0.1h16.5c0.1,0,0.3-0.1,0.4-0.1S68.3,43.4,68.2,43.2z M64.9,41.7H54.2l2.1-4.8l3.4-8L64.9,41.7z"/>
<path d="M94.6,41.4l-0.8-1.1c-0.1-0.1-0.1-0.1-0.3-0.1c-0.1,0-0.3,0-0.3,0.1h-0.3c-1.3,0.9-2.9,1.4-4.5,1.4c-2.1,0-4.1-0.9-5.6-2.4
	c-1.5-1.6-2.3-3.6-2.1-5.8c0.3-3.8,3.3-6.9,7.1-7.1c1.8-0.1,3.5,0.4,5,1.4l0.3,0.1c0.3,0.1,0.4,0.1,0.6-0.1l0.8-1.1
	c0.1-0.1,0.1-0.3,0.1-0.3c0-0.1-0.1-0.3-0.1-0.3L94.3,26c-2.6-1.9-5.9-2.3-9-1.3c-2.8,0.9-5,3.1-5.9,5.9c-1.1,3.3-0.6,6.5,1.3,9.3
	c1.9,2.6,4.9,4.1,8,4.1c2.1,0,4.1-0.6,5.8-1.9l0.3-0.1l0.1-0.1c0.1-0.1,0.1-0.3,0.1-0.4C94.7,41.5,94.7,41.4,94.6,41.4z"/>
<path d="M110.5,43.4V25.1c0-0.3,0.1-0.4,0.4-0.4h12.6c0.3,0,0.4,0.1,0.4,0.4v1.4c0,0.4-0.1,0.5-0.4,0.5h-10.8v5.9h8.5
	c0.1,0,0.3,0.1,0.3,0.1c0.1,0.1,0.1,0.3,0.1,0.3v1.4c0,0.1-0.1,0.3-0.1,0.3c-0.1,0.1-0.1,0.1-0.3,0.1h-8.5v0.6v2.3v3.6h10.8
	c0.1,0,0.3,0.1,0.4,0.1c0.1,0.1,0.1,0.3,0.1,0.4v1.3c0,0.3-0.1,0.4-0.4,0.4h-12.5C110.6,43.9,110.5,43.7,110.5,43.4z"/>
<path d="M37.6,35.7c-0.5-0.9-1.1-1.5-2-2c0.6-0.5,1-1.1,1.3-1.8s0.4-1.4,0.4-2.1c0-0.8-0.1-1.4-0.4-2s-0.6-1.1-1.1-1.6
	c-0.4-0.4-1-0.8-1.6-1.1c-0.6-0.3-1.3-0.4-1.9-0.4h-7.9c-0.3,0-0.4,0.1-0.4,0.4v1v0.4v6.9v0.1v10c0,0.3,0.1,0.4,0.4,0.4h8.5
	c0.8,0,1.4-0.1,2.1-0.4c0.6-0.3,1.3-0.6,1.8-1.1c0.5-0.5,0.9-1.1,1.1-1.8s0.4-1.4,0.4-2.1C38.3,37.5,38.1,36.6,37.6,35.7z
	 M34.3,27.7c0.6,0.6,0.8,1.3,0.8,2.1c0,0.4-0.1,0.8-0.3,1.1c-0.1,0.4-0.4,0.6-0.6,0.9c-0.3,0.3-0.6,0.5-0.9,0.6
	c-0.4,0.3-0.8,0.3-1.1,0.3h-5.8v-6h5.9C32.9,26.8,33.6,27.1,34.3,27.7z M35.8,39.6c-0.1,0.4-0.4,0.8-0.6,1.1c-0.3,0.3-0.6,0.6-1,0.8
	c-0.4,0.3-0.8,0.3-1.3,0.3h-6.8v-6.5h6.8c0.4,0,0.9,0.1,1.3,0.3c0.4,0.1,0.8,0.4,1,0.8c0.3,0.3,0.5,0.6,0.6,1.1
	c0.1,0.4,0.3,0.8,0.3,1.3C36,38.7,35.9,39.2,35.8,39.6z"/>
<path d="M112.6,138.4l-16.5-36.8c-0.1-0.3-0.4-0.5-0.7-0.5s-0.6,0.2-0.7,0.5l-10.3,22.9l-6.3,14c-0.1,0.2-0.1,0.5,0.1,0.8
	c0.1,0.2,0.4,0.4,0.6,0.4h33.1c0.3,0,0.5-0.1,0.6-0.4C112.7,139,112.7,138.7,112.6,138.4L112.6,138.4z M106.1,135.2H84.7l4.1-9.5
	l6.6-16L106.1,135.2z"/>
<path d="M165.5,134.5l-1.6-2.3c-0.1-0.2-0.3-0.3-0.5-0.4c-0.2,0-0.4,0-0.6,0.1l-0.4,0.3c-2.6,1.9-5.7,2.9-9,2.9
	c-4.2,0-8.3-1.8-11.2-4.9s-4.4-7.2-4.1-11.5c0.5-7.6,6.6-13.7,14.2-14.2c3.6-0.2,7.1,0.7,10,2.8l0.4,0.3c0.4,0.3,0.9,0.2,1.2-0.2
	l1.6-2.3c0.1-0.2,0.2-0.4,0.1-0.6c0-0.2-0.2-0.4-0.3-0.5l-0.5-0.3c-5.2-3.7-11.9-4.6-18.2-2.5c-5.6,1.9-10,6.3-11.9,11.9
	c-2.2,6.4-1.2,13.1,2.6,18.4c3.7,5.2,9.7,8.3,16.1,8.3c4.1,0,8.1-1.3,11.5-3.7l0.4-0.3c0,0,0.1-0.1,0.2-0.1c0.2-0.2,0.2-0.4,0.2-0.7
	C165.6,134.8,165.6,134.7,165.5,134.5L165.5,134.5z"/>
<path d="M197.1,138.7V102c0-0.5,0.3-0.7,0.8-0.7h25.3c0.5,0,0.8,0.3,0.8,0.8v2.7c0,0.7-0.3,1-0.9,1h-21.6v11.7h17.2
	c0.2,0,0.4,0.1,0.6,0.3c0.1,0.2,0.2,0.4,0.2,0.6v2.7c0,0.2-0.1,0.5-0.2,0.6c-0.1,0.2-0.3,0.3-0.6,0.3h-17.2v1.4v4.5v7.3H223
	c0.3,0,0.5,0.1,0.7,0.2c0.2,0.2,0.3,0.4,0.3,0.7v2.7c0,0.6-0.3,0.9-0.9,0.9H198C197.4,139.5,197.1,139.3,197.1,138.7L197.1,138.7z"
	/>
<path d="M51.2,123.3c-1-1.7-2.4-3-4.1-4.1c1.1-1,2-2.2,2.6-3.6s0.9-2.8,0.9-4.3s-0.3-2.8-0.9-4s-1.3-2.3-2.2-3.2s-2-1.6-3.2-2.1
	s-2.5-0.8-3.8-0.8H24.9c-0.6,0-0.9,0.3-0.9,0.8v2.3v0.4v13.8v0.2v20.1c0,0.5,0.3,0.8,0.9,0.8H42c1.4,0,2.8-0.3,4.1-0.9
	s2.4-1.4,3.4-2.4s1.8-2.2,2.3-3.5c0.6-1.3,0.9-2.7,0.9-4.2C52.7,126.8,52.2,125,51.2,123.3L51.2,123.3z M44.5,107.4
	c1.1,1.2,1.6,2.6,1.6,4.3c0,0.8-0.2,1.6-0.5,2.3s-0.7,1.3-1.3,1.9c-0.5,0.5-1.2,1-1.9,1.3s-1.5,0.5-2.3,0.5H28.6v-12h11.7
	C42,105.6,43.4,106.2,44.5,107.4z M47.7,131c-0.3,0.8-0.8,1.5-1.3,2.1c-0.6,0.6-1.2,1.1-1.9,1.5s-1.5,0.6-2.4,0.6H28.4V122H42
	c0.9,0,1.7,0.2,2.5,0.5c0.8,0.4,1.4,0.8,2,1.5c0.6,0.6,1,1.3,1.3,2.1s0.5,1.6,0.5,2.5C48.2,129.5,48,130.3,47.7,131z"/>
<path class="st0" d="M68.2,219.2l-8.3-18.4c-0.1-0.1-0.3-0.3-0.4-0.3c-0.1,0-0.3,0.1-0.4,0.3L54,212.2l-3.1,7
	c-0.1,0.1-0.1,0.3,0,0.4c0.1,0.1,0.3,0.1,0.4,0.1h16.5c0.1,0,0.3-0.1,0.4-0.1S68.3,219.3,68.2,219.2L68.2,219.2z M64.9,217.7H54.2
	l2.1-4.8l3.3-8L64.9,217.7z"/>
<path class="st0" d="M94.6,217.3l-0.8-1.1c-0.1-0.1-0.1-0.1-0.3-0.1c-0.1,0-0.3,0-0.3,0.1l-0.3,0.1c-1.3,0.9-2.9,1.4-4.5,1.4
	c-2.1,0-4.1-0.9-5.6-2.4c-1.5-1.6-2.3-3.6-2.1-5.8c0.3-3.8,3.3-6.9,7.1-7.1c1.8-0.1,3.5,0.4,5,1.4l0.3,0.1c0.3,0.1,0.4,0.1,0.6-0.1
	l0.8-1.1c0.1-0.1,0.1-0.3,0.1-0.3c0-0.1-0.1-0.3-0.1-0.3l-0.3-0.1c-2.6-1.9-5.9-2.3-9-1.3c-2.8,0.9-5,3.1-5.9,5.9
	c-1.1,3.3-0.6,6.5,1.3,9.3c1.9,2.6,4.9,4.1,8,4.1c2.1,0,4.1-0.6,5.8-1.9l0.3-0.1l0.1-0.1c0.1-0.1,0.1-0.3,0.1-0.4
	C94.7,217.5,94.7,217.3,94.6,217.3L94.6,217.3z"/>
<path class="st0" d="M110.5,219.3v-18.4c0-0.3,0.1-0.4,0.4-0.4h12.6c0.3,0,0.4,0.1,0.4,0.4v1.4c0,0.4-0.1,0.5-0.4,0.5h-10.8v5.9h8.5
	c0.1,0,0.3,0.1,0.3,0.1c0.1,0.1,0.1,0.3,0.1,0.3v1.4c0,0.1-0.1,0.3-0.1,0.3c-0.1,0.1-0.1,0.1-0.3,0.1h-8.5v0.6v2.3v3.6h10.8
	c0.1,0,0.3,0.1,0.4,0.1c0.1,0.1,0.1,0.3,0.1,0.4v1.4c0,0.3-0.1,0.4-0.4,0.4h-12.5C110.6,219.8,110.5,219.7,110.5,219.3L110.5,219.3z
	"/>
<path class="st0" d="M37.6,211.7c-0.5-0.9-1.1-1.5-2-2c0.6-0.5,1-1.1,1.3-1.8c0.3-0.6,0.4-1.4,0.4-2.1c0-0.8-0.1-1.4-0.4-2
	s-0.6-1.1-1.1-1.6c-0.4-0.4-1-0.8-1.6-1.1c-0.6-0.3-1.3-0.4-1.9-0.4h-7.9c-0.3,0-0.4,0.1-0.4,0.4v1.1v0.3v6.9v0.1v10
	c0,0.3,0.1,0.4,0.4,0.4h8.5c0.8,0,1.4-0.1,2.1-0.4c0.6-0.3,1.3-0.6,1.8-1.1c0.5-0.5,0.9-1.1,1.1-1.8c0.3-0.6,0.4-1.4,0.4-2.1
	C38.3,213.4,38.1,212.6,37.6,211.7L37.6,211.7z M34.3,203.7c0.6,0.6,0.8,1.3,0.8,2.1c0,0.4-0.1,0.8-0.3,1.1
	c-0.1,0.4-0.4,0.6-0.6,0.9c-0.3,0.3-0.6,0.5-0.9,0.6c-0.4,0.1-0.8,0.3-1.1,0.3h-5.8v-6h5.9C32.9,202.8,33.6,203.1,34.3,203.7
	L34.3,203.7z M35.8,215.6c-0.1,0.4-0.4,0.8-0.6,1.1c-0.3,0.3-0.6,0.6-1,0.8c-0.4,0.3-0.8,0.3-1.3,0.3h-6.8v-6.5h6.8
	c0.4,0,0.9,0.1,1.3,0.3c0.4,0.1,0.8,0.4,1,0.8c0.3,0.3,0.5,0.6,0.6,1.1c0.1,0.4,0.3,0.8,0.3,1.3C36,214.7,35.9,215.2,35.8,215.6z"/>
<path class="st0" d="M112.6,308.4l-16.5-36.8c-0.1-0.3-0.4-0.5-0.7-0.5s-0.6,0.2-0.7,0.5l-10.3,22.9l-6.3,14
	c-0.1,0.2-0.1,0.5,0.1,0.8c0.1,0.2,0.4,0.4,0.6,0.4h33.1c0.3,0,0.5-0.1,0.6-0.4C112.7,309,112.7,308.7,112.6,308.4z M106.1,305.2
	H84.7l4.1-9.5l6.6-16L106.1,305.2z"/>
<path class="st0" d="M165.5,304.5l-1.6-2.3c-0.1-0.2-0.3-0.3-0.5-0.4c-0.2,0-0.4,0-0.6,0.1l-0.4,0.3c-2.6,1.9-5.7,2.9-9,2.9
	c-4.2,0-8.3-1.8-11.2-4.9s-4.4-7.2-4.1-11.5c0.5-7.6,6.6-13.7,14.2-14.2c3.6-0.2,7.1,0.7,10,2.8l0.4,0.3c0.4,0.3,0.9,0.2,1.2-0.2
	l1.6-2.3c0.1-0.2,0.2-0.4,0.1-0.6c0-0.2-0.2-0.4-0.3-0.5l-0.5-0.3c-5.2-3.7-11.9-4.6-18.2-2.5c-5.6,1.9-10,6.3-11.9,11.9
	c-2.2,6.4-1.2,13.1,2.6,18.4c3.7,5.2,9.7,8.3,16.1,8.3c4.1,0,8.1-1.3,11.5-3.7l0.4-0.3c0,0,0.1-0.1,0.2-0.1c0.2-0.2,0.2-0.4,0.2-0.7
	C165.6,304.8,165.6,304.7,165.5,304.5L165.5,304.5z"/>
<path class="st0" d="M197.1,308.7V272c0-0.5,0.3-0.7,0.8-0.7h25.3c0.5,0,0.8,0.3,0.8,0.8v2.7c0,0.7-0.3,1-0.9,1h-21.6v11.7h17.2
	c0.2,0,0.4,0.1,0.6,0.3c0.1,0.2,0.2,0.4,0.2,0.6v2.7c0,0.2-0.1,0.5-0.2,0.6c-0.1,0.2-0.3,0.3-0.6,0.3h-17.2v1.4v4.5v7.3H223
	c0.3,0,0.5,0.1,0.7,0.2c0.2,0.2,0.3,0.4,0.3,0.7v2.7c0,0.6-0.3,0.9-0.9,0.9H198C197.4,309.5,197.1,309.3,197.1,308.7L197.1,308.7z"
	/>
<path class="st0" d="M51.2,293.3c-1-1.7-2.4-3-4.1-4.1c1.1-1,2-2.2,2.6-3.6s0.9-2.8,0.9-4.3s-0.3-2.8-0.9-4s-1.3-2.3-2.2-3.2
	s-2-1.6-3.2-2.1s-2.5-0.8-3.8-0.8H24.9c-0.6,0-0.9,0.3-0.9,0.8v2.3v0.4v13.8v0.2v20.1c0,0.5,0.3,0.8,0.9,0.8H42
	c1.4,0,2.8-0.3,4.1-0.9s2.4-1.4,3.4-2.4s1.8-2.2,2.3-3.5c0.6-1.3,0.9-2.7,0.9-4.2C52.7,296.8,52.2,295,51.2,293.3L51.2,293.3z
	 M44.5,277.4c1.1,1.2,1.6,2.6,1.6,4.3c0,0.8-0.2,1.6-0.5,2.3s-0.7,1.3-1.3,1.9c-0.5,0.5-1.2,1-1.9,1.3s-1.5,0.5-2.3,0.5H28.6v-12
	h11.7C42,275.6,43.4,276.2,44.5,277.4L44.5,277.4z M47.7,301c-0.3,0.8-0.8,1.5-1.3,2.1c-0.6,0.6-1.2,1.1-1.9,1.5s-1.5,0.6-2.4,0.6
	H28.4V292H42c0.9,0,1.7,0.2,2.5,0.5c0.8,0.4,1.4,0.8,2,1.5c0.6,0.6,1,1.3,1.3,2.1s0.5,1.6,0.5,2.5C48.2,299.5,48,300.3,47.7,301z"/>
<path class="st1" d="M95,900h15l-7.5,13L95,926l-7.5-13L80,900H95z"/>
<path class="st2" d="M39,900h15l-7.5,13L39,926l-7.5-13L24,900H39z"/>
<path d="M165.7,431.4l-26.4-58.9c-0.2-0.5-0.7-0.7-1.1-0.7s-0.9,0.3-1.1,0.7l-16.5,36.6l-10.1,22.3c-0.2,0.4-0.1,0.8,0.1,1.2
	s0.6,0.6,1,0.6h53c0.4,0,0.8-0.2,1-0.6C165.9,432.3,165.9,431.8,165.7,431.4z M155.3,426.3h-34.2l6.6-15.2l10.5-25.6L155.3,426.3z"
	/>
<path d="M250.3,425.1l-2.5-3.7c-0.2-0.3-0.5-0.5-0.8-0.6c-0.4-0.1-0.7,0-1,0.2l-0.7,0.4c-4.2,3-9.1,4.6-14.3,4.6
	c-6.8,0-13.3-2.8-18-7.8s-7-11.6-6.5-18.5c0.8-12.1,10.6-21.9,22.8-22.8c5.7-0.4,11.3,1.2,15.9,4.5l0.6,0.4c0.6,0.4,1.4,0.3,1.8-0.3
	l2.6-3.7c0.2-0.3,0.3-0.7,0.2-1s-0.2-0.7-0.5-0.9l-0.8-0.5c-8.4-5.9-19-7.3-29.1-4c-8.9,3-16.1,10.1-19,19c-3.4,10.3-2,21,4.1,29.5
	c5.9,8.3,15.6,13.2,25.8,13.2c6.6,0,13-2,18.3-5.9l0.6-0.4c0.1-0.1,0.2-0.1,0.2-0.2c0.2-0.3,0.4-0.7,0.4-1.1c0-0.2-0.1-0.4-0.2-0.6
	L250.3,425.1z"/>
<path d="M300.9,431.8v-58.7c0-0.8,0.5-1.2,1.4-1.2h40.4c0.8,0,1.3,0.4,1.3,1.3v4.3c0,1.1-0.5,1.5-1.4,1.5H308v18.7h27.5
	c0.4,0,0.7,0.1,0.9,0.4s0.4,0.7,0.4,1v4.3c0,0.4-0.1,0.8-0.4,1c-0.2,0.3-0.5,0.4-0.9,0.4H308v2.1v7.2v11.7h34.4
	c0.5,0,0.8,0.1,1.1,0.4c0.3,0.2,0.4,0.6,0.4,1.1v4.3c0,1-0.5,1.5-1.5,1.5h-40.2C301.4,433.2,300.9,432.7,300.9,431.8L300.9,431.8z"
	/>
<path d="M67.6,407.1c-1.6-2.7-3.8-4.9-6.5-6.5c1.8-1.7,3.2-3.6,4.2-5.7c0.9-2.2,1.5-4.4,1.5-6.9c0-2.3-0.5-4.5-1.4-6.5
	s-2.1-3.7-3.6-5.1s-3.2-2.5-5.2-3.4c-2-0.8-4-1.2-6.1-1.2H25.4c-0.9,0-1.4,0.4-1.4,1.3v3.6v0.7v22v0.3v32.2c0,0.8,0.5,1.3,1.5,1.3
	h27.4c2.3,0,4.4-0.5,6.6-1.4c2.1-0.9,3.9-2.2,5.5-3.8s2.8-3.4,3.7-5.6c0.9-2.1,1.4-4.3,1.4-6.7C70,412.7,69.2,409.9,67.6,407.1
	L67.6,407.1z M56.8,381.7c1.7,1.8,2.6,4.1,2.6,6.9c0,1.3-0.2,2.5-0.8,3.7c-0.5,1.1-1.2,2.1-2.1,3c-0.8,0.8-1.8,1.5-3,2.1
	c-1.1,0.5-2.4,0.8-3.7,0.8H31.4V379h18.7C52.9,378.9,55.1,379.8,56.8,381.7z M61.9,419.6c-0.5,1.2-1.2,2.4-2.1,3.3s-1.9,1.8-3.1,2.4
	s-2.5,0.9-3.9,0.9H31.1v-21.1h21.7c1.4,0,2.7,0.3,4,0.8c1.2,0.6,2.3,1.4,3.1,2.4s1.5,2.1,2.1,3.4c0.5,1.3,0.7,2.6,0.7,4
	C62.6,417,62.3,418.3,61.9,419.6L61.9,419.6z"/>
<path class="st0" d="M165.7,571.4l-26.4-58.9c-0.2-0.5-0.7-0.7-1.1-0.7s-0.9,0.3-1.1,0.7l-16.5,36.6l-10.1,22.3
	c-0.2,0.4-0.1,0.8,0.1,1.2s0.6,0.6,1,0.6h53c0.4,0,0.8-0.2,1-0.6C165.9,572.3,165.9,571.8,165.7,571.4L165.7,571.4z M155.3,566.3
	h-34.2l6.6-15.2l10.5-25.6L155.3,566.3z"/>
<path class="st0" d="M250.3,565.1l-2.5-3.7c-0.2-0.3-0.5-0.5-0.8-0.6c-0.4-0.1-0.7,0-1,0.2l-0.7,0.4c-4.2,3-9.1,4.6-14.3,4.6
	c-6.8,0-13.3-2.8-18-7.8s-7-11.6-6.5-18.5c0.8-12.1,10.6-21.9,22.8-22.8c5.7-0.4,11.3,1.2,15.9,4.5l0.6,0.4c0.6,0.4,1.4,0.3,1.8-0.3
	l2.6-3.7c0.2-0.3,0.3-0.7,0.2-1c-0.1-0.4-0.2-0.7-0.5-0.9l-0.8-0.5c-8.4-5.9-19-7.3-29.1-4c-8.9,3-16.1,10.1-19,19
	c-3.4,10.3-2,21,4.1,29.5c5.9,8.3,15.6,13.2,25.8,13.2c6.6,0,13-2,18.3-5.9l0.6-0.4c0.1-0.1,0.2-0.1,0.2-0.2
	c0.2-0.3,0.4-0.7,0.4-1.1c0-0.2-0.1-0.4-0.2-0.6L250.3,565.1z"/>
<path class="st0" d="M300.9,571.8v-58.7c0-0.8,0.5-1.2,1.4-1.2h40.4c0.8,0,1.3,0.4,1.3,1.3v4.3c0,1.1-0.5,1.5-1.4,1.5H308v18.7h27.5
	c0.4,0,0.7,0.1,0.9,0.4s0.4,0.7,0.4,1v4.3c0,0.4-0.1,0.8-0.4,1c-0.2,0.3-0.5,0.4-0.9,0.4H308v2.1v7.2v11.7h34.4
	c0.5,0,0.8,0.1,1.1,0.4c0.3,0.2,0.4,0.6,0.4,1.1v4.3c0,1-0.5,1.5-1.5,1.5h-40.2C301.4,573.2,300.9,572.7,300.9,571.8L300.9,571.8z"
	/>
<path class="st0" d="M67.6,547.1c-1.6-2.7-3.8-4.9-6.5-6.5c1.8-1.7,3.2-3.6,4.2-5.7c0.9-2.2,1.5-4.4,1.5-6.9c0-2.3-0.5-4.5-1.4-6.5
	s-2.1-3.7-3.6-5.1s-3.2-2.5-5.2-3.4c-2-0.8-4-1.2-6.1-1.2H25.4c-0.9,0-1.4,0.4-1.4,1.3v3.6v0.7v22v0.3v32.2c0,0.8,0.5,1.3,1.5,1.3
	h27.4c2.3,0,4.4-0.5,6.6-1.4c2.1-0.9,3.9-2.2,5.5-3.8c1.5-1.6,2.8-3.4,3.7-5.6c0.9-2.1,1.4-4.3,1.4-6.7
	C70,552.7,69.2,549.9,67.6,547.1L67.6,547.1z M56.8,521.7c1.7,1.8,2.6,4.1,2.6,6.9c0,1.3-0.2,2.5-0.8,3.7c-0.5,1.1-1.2,2.1-2.1,3
	c-0.8,0.8-1.8,1.5-3,2.1c-1.1,0.5-2.4,0.8-3.7,0.8H31.4V519h18.7C52.9,518.9,55.1,519.8,56.8,521.7z M61.9,559.6
	c-0.5,1.2-1.2,2.4-2.1,3.3s-1.9,1.8-3.1,2.4s-2.5,0.9-3.9,0.9H31.1v-21.1h21.7c1.4,0,2.7,0.3,4,0.8c1.2,0.6,2.3,1.4,3.1,2.4
	c0.9,1,1.5,2.1,2.1,3.4c0.5,1.3,0.7,2.6,0.7,4C62.6,557,62.3,558.3,61.9,559.6L61.9,559.6z"/>
<path class="st1" d="M139,926h-15l7.5-13l7.5-13l7.5,13l7.5,13H139z"/>
<path class="st2" d="M195,926h-15l7.5-13l7.5-13l7.5,13l7.5,13H195z"/>
<path class="st3" d="M31,812.1h-7l3.5-6L31,800l3.5,6.1l3.5,6H31z"/>
<path class="st3" d="M500,807v-7l6.1,3.5l6,3.5l-6,3.5L500,814L500,807z"/>
<path class="st3" d="M518.8,36l-9.4,9.3l-9.4-9.2"/>
<path class="st3" d="M509.3,24v21.1"/>
</svg>
