<?xml version="1.0" encoding="utf-8"?>
<!-- Generator: Adobe Illustrator 24.0.0, SVG Export Plug-In . SVG Version: 6.00 Build 0)  -->
<svg version="1.1" id="Layer_1" xmlns="http://www.w3.org/2000/svg" xmlns:xlink="http://www.w3.org/1999/xlink" x="0px" y="0px"
	 viewBox="0 0 500 500" style="enable-background:new 0 0 500 500;" xml:space="preserve">
<style type="text/css">
	.st0{fill:#FFFFFF;}
	.st1{stroke:#FFFFFF;stroke-width:2;stroke-miterlimit:10;}
</style>
<g>
	<path class="st0" d="M250,80.8L348.3,251l98.3,170.2H250H53.5L151.7,251L250,80.8 M250,76.8L150,250L50,423.2h200h200L350,250
		L250,76.8L250,76.8z"/>
</g>
<g>
	<g>
		<polygon class="st1" points="251,250 151,250 201,163.4 251,76.8 301,163.4 351,250 		"/>
	</g>
	<g>
		<path class="st0" d="M237.3,167.3c3.7,0,6.4,1.3,9,3.4c0.3,0.3,0.3,0.7,0,1l-1.6,1.7c-0.3,0.3-0.6,0.3-0.9,0
			c-1.7-1.5-4.1-2.5-6.4-2.5c-5.3,0-9.3,4.4-9.3,9.6c0,5.2,4,9.6,9.3,9.6c2.7,0,4.6-1.1,6.4-2.4c0.3-0.3,0.7-0.2,0.9,0l1.7,1.7
			c0.3,0.3,0.2,0.7,0,1c-2.5,2.4-5.7,3.6-9,3.6c-7.4,0-13.4-5.9-13.4-13.3C224,173.2,229.9,167.3,237.3,167.3z"/>
		<path class="st0" d="M254.4,167.8c0.1-0.3,0.4-0.6,0.7-0.6h0.6c0.2,0,0.6,0.2,0.6,0.4l7.7,18.9h0.1l7.7-18.9
			c0.1-0.2,0.4-0.4,0.6-0.4h0.6c0.3,0,0.6,0.3,0.7,0.6l4.6,24.9c0.1,0.5-0.1,0.9-0.7,0.9h-2.4c-0.3,0-0.6-0.3-0.7-0.5l-2.7-16.5
			c0,0-0.1,0-0.1,0l-6.7,17c-0.1,0.2-0.3,0.4-0.6,0.4h-0.7c-0.3,0-0.6-0.2-0.6-0.4l-6.7-17c0,0-0.1,0-0.1,0l-2.7,16.5
			c0,0.3-0.4,0.5-0.7,0.5h-2.4c-0.5,0-0.8-0.3-0.7-0.9L254.4,167.8z"/>
	</g>
</g>
<g>
	<g>
		<polygon class="st1" points="151,423.2 51,423.2 101,336.6 151,250 201,336.6 251,423.2 		"/>
	</g>
	<g>
		<path class="st0" d="M123.9,344.8c0-0.4,0.3-0.7,0.7-0.7h8.5c7.1,0,13,5.8,13,12.9c0,7.2-5.8,13-13,13h-8.5
			c-0.4,0-0.7-0.3-0.7-0.7V344.8z M132.5,366.4c5.4,0,9.4-4,9.4-9.5c0-5.4-4-9.4-9.4-9.4h-4.9v18.9H132.5z"/>
		<path class="st0" d="M154.2,344.2c0.1-0.3,0.4-0.6,0.7-0.6h0.6c0.2,0,0.6,0.2,0.6,0.4l7.7,18.9h0.1l7.7-18.9
			c0.1-0.2,0.4-0.4,0.6-0.4h0.6c0.3,0,0.6,0.3,0.7,0.6l4.6,24.9c0.1,0.5-0.1,0.9-0.7,0.9H175c-0.3,0-0.6-0.3-0.7-0.5l-2.7-16.5
			c0,0-0.1,0-0.1,0l-6.7,17c-0.1,0.2-0.3,0.4-0.6,0.4h-0.7c-0.3,0-0.6-0.2-0.6-0.4l-6.7-17c0,0-0.1,0-0.1,0l-2.7,16.5
			c0,0.3-0.4,0.5-0.7,0.5h-2.4c-0.5,0-0.8-0.3-0.7-0.9L154.2,344.2z"/>
	</g>
</g>
<g>
	<g>
		<polygon class="st1" points="351,423.2 251,423.2 301,336.6 351,250 401,336.6 451,423.2 		"/>
	</g>
	<g>
		<path class="st0" d="M328,344.8c0-0.4,0.3-0.7,0.7-0.7h8.4c4.6,0,8.3,3.7,8.3,8.2c0,4.6-3.7,8.3-8.3,8.3h-5.4v8.7
			c0,0.4-0.3,0.7-0.7,0.7h-2.4c-0.4,0-0.7-0.3-0.7-0.7V344.8z M336.9,356.9c2.6,0,4.7-2.1,4.7-4.7c0-2.5-2.1-4.4-4.7-4.4h-5.1v9.2
			H336.9z"/>
		<path class="st0" d="M352.6,344.2c0.1-0.3,0.4-0.6,0.7-0.6h0.6c0.2,0,0.6,0.2,0.6,0.4l7.7,18.9h0.1l7.7-18.9
			c0.1-0.2,0.4-0.4,0.6-0.4h0.6c0.3,0,0.6,0.3,0.7,0.6l4.6,24.9c0.1,0.5-0.1,0.9-0.7,0.9h-2.4c-0.3,0-0.6-0.3-0.7-0.5l-2.7-16.5
			c0,0-0.1,0-0.1,0l-6.7,17c-0.1,0.2-0.3,0.4-0.6,0.4h-0.7c-0.3,0-0.6-0.2-0.6-0.4l-6.7-17c0,0-0.1,0-0.1,0l-2.7,16.5
			c0,0.3-0.4,0.5-0.7,0.5h-2.4c-0.5,0-0.8-0.3-0.7-0.9L352.6,344.2z"/>
	</g>
</g>
<g>
	<g>
		<polygon class="st1" points="251,250 351,250 301,336.6 251,423.2 201,336.6 151,250 		"/>
	</g>
	<g>
		<path class="st0" d="M239.9,299.7c3.7,0,6.4,1.3,9,3.4c0.3,0.3,0.3,0.7,0,1l-1.6,1.7c-0.3,0.3-0.6,0.3-0.9,0
			c-1.7-1.5-4.1-2.5-6.4-2.5c-5.3,0-9.3,4.4-9.3,9.6c0,5.2,4,9.6,9.3,9.6c2.7,0,4.6-1.1,6.4-2.4c0.3-0.3,0.7-0.2,0.9,0l1.7,1.7
			c0.3,0.3,0.2,0.7,0,1c-2.5,2.4-5.7,3.6-9,3.6c-7.4,0-13.4-5.9-13.4-13.3C226.5,305.7,232.5,299.7,239.9,299.7z"/>
		<path class="st0" d="M250.7,325l11.4-24.9c0.1-0.2,0.4-0.4,0.6-0.4h0.4c0.2,0,0.5,0.2,0.6,0.4L275,325c0.2,0.5-0.1,1-0.6,1H272
			c-0.4,0-0.7-0.2-0.9-0.6l-2.3-5.1h-12.1c-0.7,1.7-1.5,3.4-2.3,5.1c-0.1,0.3-0.4,0.6-0.9,0.6h-2.3C250.8,326,250.5,325.5,250.7,325
			z M267.5,317.2l-4.6-10.1h-0.2l-4.5,10.1H267.5z"/>
	</g>
</g>
</svg>
