<?xml version="1.0" standalone="no"?>
<!DOCTYPE svg PUBLIC "-//W3C//DTD SVG 20010904//EN"
 "http://www.w3.org/TR/2001/REC-SVG-20010904/DTD/svg10.dtd">
<svg version="1.0" xmlns="http://www.w3.org/2000/svg"
 width="700.000000pt" height="700.000000pt" viewBox="0 0 700.000000 700.000000"
 preserveAspectRatio="xMidYMid meet">
<metadata>
Created by potrace 1.11, written by Peter Selinger 2001-2013
</metadata>
<g transform="translate(0.000000,700.000000) scale(0.100000,-0.100000)"
fill="#000000" stroke="none">
<path d="M3390 6194 c-1126 -54 -2092 -781 -2446 -1839 -93 -280 -136 -547
-136 -855 0 -121 6 -245 16 -325 156 -1236 1115 -2195 2351 -2351 172 -21 478
-21 650 0 1236 156 2195 1115 2351 2351 10 80 16 204 16 325 0 121 -6 245 -16
325 -131 1043 -842 1908 -1835 2235 -290 96 -660 148 -951 134z m147 -1213
c15 -18 1154 -2550 1167 -2597 3 -11 0 -29 -8 -40 -14 -19 -38 -19 -1178 -21
-1248 -3 -1210 -5 -1216 47 -2 16 57 157 154 370 86 190 339 752 564 1250 487
1083 448 998 468 1003 30 8 32 7 49 -12z"/>
<path d="M3281 3877 c-118 -287 -285 -687 -372 -889 l-157 -368 749 0 c412 0
749 2 749 4 0 14 -740 1771 -747 1773 -4 1 -104 -233 -222 -520z"/>
</g>
</svg>
